OpenSim_Sub06_CSBaseline_GRF.mot
version=1
nRows=40
nColumns=19
inDegrees=no
endheader
time	lFx	lFy	lFz	lCOPx	lCOPy	lCOPz	rFx	rFy	rFz	rCOPx	rCOPy	rCOPz	lMx	lMy	lMz	rMx	rMy	rMz
63.69000000	-1.87183731	-3.00501408	-4.99036080	0.00008850	0	-0.00005422	20.51209749	664.18059266	-80.25745419	0.63862983	0	-0.32120647	0	-0.00100877	0	0	1.53012088	0
63.70000000	-2.10960480	-2.74742535	-4.94476314	0.00040943	0	-0.00026896	24.10104635	666.84921657	-82.04919687	0.63288618	0	-0.32075665	0	-0.00369684	0	0	1.69455928	0
63.71000000	-2.28482692	-2.54810919	-5.06707419	0.00091677	0	-0.00061706	27.86101747	668.81995915	-83.39947133	0.62718811	0	-0.32030478	0	-0.00748258	0	0	1.83753440	0
63.72000000	-2.37425771	-2.42526800	-5.29831115	0.00125177	0	-0.00086764	31.84930848	670.30885495	-84.30719357	0.62156867	0	-0.31982878	0	-0.00887012	0	0	1.95905636	0
63.73000000	-2.34999278	-2.45813467	-5.60786788	0.00035269	0	-0.00031416	35.93136205	671.30032710	-85.01252259	0.61612122	0	-0.31936781	0	0.00124057	0	0	2.06299893	0
63.74000000	-2.18311683	-2.85147392	-5.99425681	-0.00366770	0	0.00232899	39.85973536	671.46997747	-85.61419841	0.61086580	0	-0.31892418	0	0.03742910	0	0	2.13171634	0
63.75000000	-1.95085668	-3.69123475	-6.44380875	-0.01255638	0	0.00831534	43.40970449	670.44762322	-86.14584896	0.60579280	0	-0.31848565	0	0.10978637	0	0	2.22194148	0
63.76000000	-1.93711297	-4.82812855	-6.91875732	-0.02450073	0	0.01660423	46.69014469	668.01932395	-86.52557689	0.60085302	0	-0.31805066	0	0.19389473	0	0	2.33729892	0
63.77000000	-2.66907350	-5.35164498	-7.39546296	-0.02733209	0	0.01925926	49.93174183	664.23645591	-86.69600300	0.59594230	0	-0.31763925	0	0.17680049	0	0	2.44547339	0.00000000
63.78000000	-4.65042776	-2.66260631	-7.72353743	0.00929875	0	-0.00404982	53.23623439	659.35844579	-86.70670257	0.59109968	0	-0.31729592	0	-0.19441733	0	0	2.56092947	0
63.79000000	-7.45992299	7.62627947	-7.72263205	0.13208364	0	-0.08541669	56.50588244	653.57108348	-86.48629373	0.58630410	0	-0.31699536	0	-1.26510237	0	0	2.67762717	0
63.80000000	-8.63229732	30.57956900	-7.08034202	0.36876597	0	-0.24592148	59.69960776	646.67034904	-85.95779595	0.58139713	0	-0.31668143	0	-3.13256717	0	0	2.78672600	0
63.81000000	-6.44180027	71.63828306	-5.23738086	0.63759889	0	-0.43528589	62.77384552	637.96382232	-85.09536293	0.57660063	0	-0.31631464	0	-4.87441750	0	0	2.90404779	0
63.82000000	-3.68315742	130.53734301	-1.52411424	0.80385391	0	-0.56352325	65.39719647	626.09449568	-83.56929755	0.57218497	0	-0.31589205	0	-5.56853822	0	0	2.92485181	0
63.83000000	-3.64196397	197.17895294	4.28482461	0.86206773	0	-0.61888607	67.17457186	609.39793746	-81.18774899	0.56816083	0	-0.31543206	0	-5.81016520	0	0	2.87788616	-0.00000000
63.84000000	-6.75782167	258.34834287	10.92415856	0.86275588	0	-0.63070880	67.82969760	586.87947495	-77.64858152	0.56440181	0	-0.31499048	0	-6.08688063	0	0	2.81716628	0.00000000
63.85000000	-13.41618196	303.28708225	17.71313394	0.84635337	0	-0.62627799	67.25293422	558.62580600	-72.69697220	0.56078474	0	-0.31464401	0	-6.83348668	0	0	2.80233795	0
63.86000000	-22.44273421	330.40263020	24.00080890	0.83204085	0	-0.62024206	65.56130826	525.90148201	-66.36681156	0.55750981	0	-0.31445416	0	-8.02335510	0	0	2.84618110	0
63.87000000	-31.96537620	346.17107216	30.12175252	0.82417758	0	-0.61738164	63.15574579	489.77300574	-59.10384901	0.55472489	0	-0.31449108	0	-9.54631003	0	0	2.92198331	0.00000000
63.88000000	-39.91758584	359.31611236	36.41790181	0.82046935	0	-0.61755696	60.49176060	451.05030596	-51.50853660	0.55236099	0	-0.31464792	0	-11.15419009	0	0	2.98231325	0
63.89000000	-44.78629440	375.88398656	42.80018802	0.81758088	0	-0.61921264	57.69346066	410.37617293	-44.12283052	0.55015489	0	-0.31480041	0	-12.56802987	0	0	3.00377615	0.00000000
63.90000000	-46.25981106	397.79574968	49.01828434	0.81362047	0	-0.62103635	54.67521028	368.10282256	-37.21678348	0.54759048	0	-0.31489347	0	-13.59855142	0	0	2.98006421	0
63.91000000	-45.38569052	423.63676555	54.70246315	0.80877167	0	-0.62244917	51.10246596	324.65118101	-30.85310928	0.54445007	0	-0.31488645	0	-14.21351062	0	0	2.85172482	-0.00000000
63.92000000	-43.49773431	450.41413724	59.35916289	0.80372903	0	-0.62338644	46.70985925	280.60396709	-25.24277606	0.54118809	0	-0.31493405	0	-14.48758077	0	0	2.65676140	0
63.93000000	-41.15087473	475.32248672	62.59753871	0.79831593	0	-0.62397418	41.45909553	237.00648997	-20.55282667	0.53941031	0	-0.31555531	0	-14.41001032	0	0	2.36530920	-0.00000000
63.94000000	-38.43882157	497.28697317	64.55849047	0.79242405	0	-0.62441714	35.37501378	195.07819496	-16.81897697	0.54053891	0	-0.31740926	0	-14.05387298	0	0	1.98021691	0.00000000
63.95000000	-35.69578394	516.81211176	65.92734093	0.78620042	0	-0.62480934	28.58358972	155.91038855	-13.85865243	0.54507223	0	-0.32082853	0	-13.57688927	0	0	1.55041216	0.00000000
63.96000000	-33.34349924	534.78047800	67.25972649	0.77994453	0	-0.62518024	21.32727030	120.73270656	-11.34079637	0.55039289	0	-0.32440085	0	-13.08487873	0	0	1.04486325	0
63.97000000	-31.55286669	552.02012081	68.83247981	0.77378805	0	-0.62554194	13.98608360	90.64192349	-9.24099317	0.54669907	0	-0.32257658	0	-12.68046175	0	0	0.58207049	-0.00000000
63.98000000	-30.19497084	569.32031578	70.57726146	0.76792927	0	-0.62589678	6.94488510	66.34671745	-7.51661436	0.51285056	0	-0.30321579	0	-12.33869508	0	0	0.23027640	0.00000000
63.99000000	-28.95038034	587.21811475	72.32044095	0.76217860	0	-0.62625179	0.64332492	47.57627231	-6.12956238	0.42067795	0	-0.25044854	0	-11.92138498	0	0	-0.00403962	0.00000000
64.00000000	-27.68096066	605.52523704	74.16265472	0.75640304	0	-0.62658350	-4.32225037	33.29105258	-5.13861756	0.26839043	0	-0.16196542	0	-11.47720886	0	0	-0.08630759	0.00000000
64.01000000	-26.40996323	623.24200431	76.13210772	0.75057255	0	-0.62690158	-7.20966917	22.17428670	-4.26998324	0.11398034	0	-0.06978563	0	-11.13049452	0	0	-0.07864707	0.00000000
64.02000000	-25.11222738	639.06600480	78.01029245	0.74455146	0	-0.62723850	-7.15429915	13.07730660	-3.09293668	0.02117374	0	-0.01358595	0	-10.88378196	0	0	-0.04069387	0.00000000
64.03000000	-23.78897069	651.84776283	79.61078122	0.73837814	0	-0.62761418	-4.44947890	5.97859738	-1.34674873	-0.01297846	0	0.00744435	0	-10.76034126	0	0	-0.01208632	0.00000000
64.04000000	-22.40607674	660.87015683	80.74962119	0.73236326	0	-0.62801686	-1.72430223	1.87615425	0.16973909	-0.01605353	0	0.00958817	0	-10.71845151	0	0	0.00098196	-0.00000000
64.05000000	-20.88760320	665.90170601	81.24061379	0.72661635	0	-0.62840032	-0.21272748	0.47143412	0.45471526	-0.00952748	0	0.00577142	0	-10.64138437	0	0	0.00397956	0.00000000
64.06000000	-19.11773607	666.99327953	81.12427805	0.72084362	0	-0.62870555	0.26205670	0.47204403	0.49054445	-0.00345204	0	0.00212713	0	-10.56368323	0	0	0.00295129	0.00000000
64.07000000	-17.03237770	664.59749616	80.44006745	0.71482971	0	-0.62896518	0.23869196	0.81171514	0.55543417	-0.00027211	0	0.00019388	0	-10.47582049	0	0	0.00133128	0.00000000
64.08000000	-14.67426699	659.58168563	79.21651867	0.70856183	0	-0.62923120	0.11373975	1.03404514	0.36888605	0.00069087	0	-0.00040457	0	-10.28468524	0	0	0.00029560	0
